# xmcd
#
# Track frame offsets:
# 150
# 26530
# 44870
# 59276
# 78543
# 93375
# 104098
# 118237
# 146715
# 167729
#
# Disc length: 2550 seconds
#
#
# Revision: 0
# Processed by: cddbd v1.5.2PL0 Copyright (c) Steve Scherf et al.
# Submitted via: FreeRIP 2.951 
#
DISCID=9309f40a
DTITLE=John Mayall - New Year, New Band, New Company
DYEAR=1975
DGENRE=blue
TTITLE0=Sitting On The Outside
TTITLE1=Can't Get Home
TTITLE2=Step In The Sun
TTITLE3=To Match The Wind
TTITLE4=Sweet Scorpio
TTITLE5=Driving On
TTITLE6=Taxman Blues
TTITLE7=So Much To Do
TTITLE8=My Train Time
TTITLE9=Respectfully Yours
EXTD=
EXTT0=
EXTT1=
EXTT2=
EXTT3=
EXTT4=
EXTT5=
EXTT6=
EXTT7=
EXTT8=
EXTT9=
PLAYORDER=
